<svg xmlns="http://www.w3.org/2000/svg" viewBox="0 0 799.42 800"><defs><style>.cls-1{fill:#f16c1f;}</style></defs><g id="Camada_2" data-name="Camada 2"><g id="Capa_1" data-name="Capa 1"><path class="cls-1" d="M630,409.5A243.67,243.67,0,0,0,395.31,173.76C264.14,65.49,140.89,0,67.7,0c-21,0-37.88,5.39-49.64,16.71C-31.87,64.79,25,205.91,148.42,364.15a243.8,243.8,0,0,0,291.8,291C557.62,746,665.3,800,731.73,800c21,0,37.87-5.39,49.63-16.71C834.05,732.55,767.84,578.23,630,409.5ZM616.81,623.61c-8.52,8.2-23.94,18-49,18-17.1,0-36.83-4.53-59-13.45q-28.67-11.53-62.61-32.89c-45.75-28.82-94.37-68.58-140.58-115-46-46.21-85.31-94.65-113.64-140.08q-12.15-19.5-21-37.25c-16.23-32.4-24.34-60.41-24.1-83.55.27-25.64,10.8-41.11,19.59-49.57,8.52-8.2,23.94-18,49-18h0c26.72,0,59.82,11,98.59,32.68a242.14,242.14,0,0,0-39.79,16.29c-23-10.61-43.08-16.33-58.81-16.32-11.14,0-20.1,2.86-26.34,8.86C175,207,177,234.64,191.92,270.27c21.67,51.81,70.62,120.4,136.89,187,78,78.29,159.28,133,213.16,147.75a99.58,99.58,0,0,0,25.87,4c11.13,0,20.09-2.86,26.33-8.87,11.92-11.48,12.37-33,3.29-60.77a241.71,241.71,0,0,0,18.77-40.72c13.6,29,20.39,54.25,20.17,75.44C636.13,599.68,625.6,615.14,616.81,623.61Z"/></g></g></svg>